<svg aria-hidden="true" style="position: absolute; width: 0; height: 0; overflow: hidden;" version="1.1" xmlns="http://www.w3.org/2000/svg" xmlns:xlink="http://www.w3.org/1999/xlink">
<defs>
<symbol id="icon-check" viewBox="0 0 42 32">
<path stroke-linejoin="miter" stroke-linecap="butt" stroke-miterlimit="4" stroke-width="0.64" d="M6.262 15.206l-0.221-0.211-0.221 0.208-3.085 2.925 0.243 0.234 11.408 10.88 0.221-0.211 24.256-23.139-0.243-0.23-3.043-2.902-0.221 0.211-20.97 19.987-8.125-7.75z"></path>
</symbol>
<symbol id="icon-close-black" viewBox="0 0 32 32">
<path d="M26.667 7.303l-1.97-1.97-7.808 7.808-7.808-7.808-1.97 1.97 7.808 7.808-7.808 7.808 1.97 1.97 7.808-7.808 7.808 7.808 1.97-1.97-7.808-7.808 7.808-7.808z"></path>
</symbol>
<symbol id="icon-mail" viewBox="0 0 43 32">
<path d="M37.333 0h-32c-2.2 0-3.981 1.8-3.981 4l-0.019 24c0 2.2 1.8 4 4 4h32c2.2 0 4-1.8 4-4v-24c0-2.2-1.8-4-4-4zM36.533 8.501l-14.139 8.837c-0.302 0.188-0.668 0.3-1.060 0.3s-0.758-0.112-1.069-0.305l0.009 0.005-14.141-8.84c-0.503-0.301-0.835-0.843-0.835-1.463 0-0.938 0.761-1.699 1.699-1.699 0.349 0 0.673 0.105 0.943 0.285l-0.006-0.004 13.4 8.381 13.4-8.381c0.264-0.176 0.588-0.282 0.937-0.282 0.938 0 1.699 0.761 1.699 1.699 0 0.62-0.332 1.162-0.828 1.459l-0.008 0.004z"></path>
</symbol>
<symbol id="icon-person-black" viewBox="0 0 32 32">
<path d="M16 16c2.946 0 5.333-2.388 5.333-5.333s-2.388-5.333-5.333-5.333v0c-2.946 0-5.333 2.388-5.333 5.333s2.388 5.333 5.333 5.333v0zM16 18.667c-3.561 0-10.667 1.787-10.667 5.333v1.333c0 0.732 0.599 1.333 1.333 1.333h18.667c0.732 0 1.333-0.601 1.333-1.333v-1.333c0-3.547-7.108-5.333-10.667-5.333z"></path>
</symbol>
<symbol id="icon-phone-black" viewBox="0 0 32 32">
<path d="M24.882 19.774l-3.268-0.373c-0.090-0.011-0.194-0.018-0.3-0.018-0.707 0-1.347 0.287-1.81 0.75l-2.368 2.368c-3.669-1.894-6.585-4.81-8.427-8.372l-0.051-0.108 2.382-2.377c0.463-0.463 0.75-1.103 0.75-1.81 0-0.106-0.006-0.21-0.019-0.312l0.001 0.012-0.373-3.243c-0.155-1.287-1.24-2.276-2.557-2.276-0.001 0-0.002 0-0.003 0h-2.226c-1.454 0-2.663 1.209-2.574 2.661 0.683 10.987 9.47 19.762 20.444 20.444 1.452 0.089 2.663-1.12 2.663-2.574v-2.226c0-0.004 0-0.008 0-0.012 0-1.308-0.985-2.386-2.253-2.532l-0.012-0.001z"></path>
</symbol>
</defs>
</svg>
